<svg width="28" height="28" viewBox="0 0 28 28" fill="none" xmlns="http://www.w3.org/2000/svg">
<g opacity="0.5">
<path fill-rule="evenodd" clip-rule="evenodd" d="M24.0382 15.365L26.9658 17.682C27.2294 17.899 27.3058 18.2771 27.1323 18.578L24.3572 23.429C24.1838 23.73 23.823 23.849 23.5108 23.73L20.0559 22.323C19.3414 22.883 18.5574 23.345 17.7111 23.702L17.1907 27.412C17.1353 27.741 16.8508 28 16.5039 28H10.9539C10.607 28 10.3226 27.741 10.2671 27.412L9.74676 23.702C8.90039 23.345 8.11647 22.8761 7.40188 22.323L3.94697 23.73C3.63478 23.856 3.27407 23.73 3.10061 23.429L0.325559 18.578C0.152098 18.27 0.228455 17.892 0.492061 17.682L3.41969 15.365C3.36421 14.917 3.32259 14.462 3.32259 14C3.32259 13.538 3.36421 13.083 3.41969 12.635L0.492061 10.318C0.228455 10.101 0.152098 9.72302 0.325559 9.42199L3.10067 4.57099C3.27407 4.26996 3.63484 4.15098 3.94704 4.26996L7.40194 5.67697C8.11647 5.11699 8.90046 4.65499 9.74682 4.29799L10.2671 0.588001C10.3226 0.259022 10.6071 0 10.954 0H16.504C16.8508 0 17.1353 0.259022 17.1978 0.588001L17.7181 4.29799C18.5644 4.65499 19.3484 5.12394 20.063 5.67697L23.5179 4.26996C23.8301 4.14396 24.1908 4.26996 24.3642 4.57099L27.1393 9.42199C27.3127 9.72997 27.2364 10.108 26.9728 10.318L24.0382 12.635C24.0937 13.083 24.1353 13.538 24.1353 14C24.1353 14.462 24.0937 14.917 24.0382 15.365ZM8.87262 14C8.87262 16.709 11.0441 18.9 13.7289 18.9C16.4138 18.9 18.5853 16.7091 18.5853 14.0001C18.5853 11.2911 16.4138 9.10004 13.7289 9.10004C11.0441 9.10004 8.87262 11.291 8.87262 14Z" fill="#D7E0FF"/>
</g>
</svg>
